<?xml version="1.0" standalone="no"?>
<!DOCTYPE svg PUBLIC "-//W3C//DTD SVG 20010904//EN"
 "http://www.w3.org/TR/2001/REC-SVG-20010904/DTD/svg10.dtd">
<svg version="1.0" xmlns="http://www.w3.org/2000/svg"
 width="512.000000pt" height="512.000000pt" viewBox="0 0 512.000000 512.000000"
 preserveAspectRatio="xMidYMid meet">
<metadata>
Created by potrace 1.10, written by Peter Selinger 2001-2011
</metadata>
<g transform="translate(0.000000,512.000000) scale(0.100000,-0.100000)"
fill="#ffffff" stroke="none">
<path d="M3635 4551 c-110 -43 -179 -91 -510 -351 -170 -134 -326 -255 -345
-270 l-35 -28 -185 34 c-102 18 -239 42 -305 54 -66 11 -132 23 -147 26 l-26
5 40 79 c86 171 52 300 -81 300 -111 0 -284 -104 -414 -249 l-38 -43 -237 41
c-130 23 -246 44 -257 46 -15 3 -55 -26 -145 -103 -69 -59 -145 -124 -170
-144 -25 -20 -42 -39 -40 -41 3 -3 199 -94 435 -202 865 -397 930 -427 939
-435 11 -11 -2 -27 -246 -322 -97 -117 -247 -298 -333 -403 -86 -104 -190
-229 -230 -276 l-73 -86 -204 38 c-111 21 -237 45 -278 53 l-75 14 -70 -69
-70 -68 498 -498 498 -498 68 70 69 70 -14 75 c-8 41 -32 166 -53 278 l-38
203 66 57 c36 32 89 76 116 98 57 46 371 306 674 557 112 93 210 170 219 171
15 1 35 -41 447 -939 108 -236 199 -432 202 -435 2 -2 21 15 41 40 20 25 85
101 144 170 77 90 106 130 103 145 -2 11 -23 127 -46 257 l-41 237 43 38 c145
130 249 303 249 414 0 133 -129 167 -300 81 l-79 -40 -5 26 c-3 15 -15 81 -26
147 -12 66 -36 203 -54 305 l-34 185 28 35 c15 19 137 175 270 345 257 327
314 409 355 518 89 238 -62 383 -300 288z"/>
</g>
</svg>
